<svg width="32" height="32" viewBox="0 0 32 32" fill="none" xmlns="http://www.w3.org/2000/svg">
<path fill-rule="evenodd" clip-rule="evenodd" d="M6 9C6 7.34315 7.34315 6 9 6H23C24.6569 6 26 7.34315 26 9V13C26 14.6569 24.6569 16 23 16H22V14H23C23.5523 14 24 13.5523 24 13V9C24 8.44772 23.5523 8 23 8H9C8.44772 8 8 8.44772 8 9V13C8 13.5523 8.44772 14 9 14H10V16H9C7.34315 16 6 14.6569 6 13V9Z" fill="white"/>
<path fill-rule="evenodd" clip-rule="evenodd" d="M9 11C9 9.89543 9.89543 9 11 9H21C22.1046 9 23 9.89543 23 11V23C23 24.6569 21.6569 26 20 26H12C10.3431 26 9 24.6569 9 23V11ZM21 11H11V23C11 23.5523 11.4477 24 12 24H20C20.5523 24 21 23.5523 21 23V11Z" fill="white"/>
<path fill-rule="evenodd" clip-rule="evenodd" d="M13.5 13C13.7761 13 14 13.2239 14 13.5V16.5C14 16.7761 13.7761 17 13.5 17C13.2239 17 13 16.7761 13 16.5V13.5C13 13.2239 13.2239 13 13.5 13Z" fill="white"/>
<path d="M18.0087 22.7769C18.2083 22.7769 18.3559 22.6641 18.3559 22.421V22.0217C19.4931 21.9045 20.1962 21.2361 20.1962 20.2639C20.1962 19.4262 19.697 18.9141 18.638 18.6667L17.7179 18.4453C17.1667 18.3194 16.8845 18.033 16.8845 17.6337C16.8845 17.1345 17.3099 16.7873 17.9696 16.7873C18.4948 16.7873 18.8507 16.974 19.2283 17.4427C19.4063 17.651 19.5321 17.7205 19.7057 17.7205C19.9227 17.7205 20.0833 17.5729 20.0833 17.3429C20.0833 17.1042 19.9358 16.8307 19.684 16.592C19.3715 16.2882 18.9071 16.0929 18.3906 16.0234V15.6328C18.3906 15.3898 18.2344 15.2769 18.0347 15.2769C17.8351 15.2769 17.6832 15.3898 17.6832 15.6328V16.0104C16.5981 16.1102 15.9036 16.7613 15.9036 17.6988C15.9036 18.5061 16.4115 19.066 17.3576 19.2873L18.2908 19.5174C18.9462 19.678 19.2196 19.9253 19.2196 20.3507C19.2196 20.9019 18.7899 21.2448 18.0434 21.2448C17.4748 21.2448 17.0408 21.0365 16.6458 20.5677C16.4418 20.3377 16.3507 20.2943 16.2031 20.2943C15.9688 20.2943 15.7995 20.4462 15.7995 20.7023C15.7995 20.9583 15.9601 21.2361 16.2335 21.4705C16.5764 21.77 17.0885 21.9653 17.6528 22.0174V22.421C17.6528 22.6641 17.8047 22.7769 18.0087 22.7769Z" fill="white"/>
</svg>
