<svg width="19" height="23" viewBox="0 0 19 23" fill="none" xmlns="http://www.w3.org/2000/svg">
<path d="M6 2C6 1.17157 6.67157 0.5 7.5 0.5H10.5C11.3284 0.5 12 1.17157 12 2C12 2.82843 11.3284 3.5 10.5 3.5H7.5C6.67157 3.5 6 2.82843 6 2Z" fill="white"/>
<path d="M14.0607 9.00182C13.4749 8.41604 13.4749 7.46629 14.0607 6.8805L15.7931 5.14809C16.3789 4.5623 17.3286 4.5623 17.9144 5.14809C18.5002 5.73388 18.5002 6.68362 17.9144 7.26941L16.182 9.00182C15.5962 9.58761 14.6464 9.58761 14.0607 9.00182Z" fill="white"/>
<path fill-rule="evenodd" clip-rule="evenodd" d="M9 22.5C13.9706 22.5 18 18.4706 18 13.5C18 8.52944 13.9706 4.5 9 4.5C4.02944 4.5 0 8.52944 0 13.5C0 18.4706 4.02944 22.5 9 22.5ZM10 9.5C10 8.94772 9.55229 8.5 9 8.5C8.44771 8.5 8 8.94772 8 9.5V13.5C8 14.0523 8.44772 14.5 9 14.5L13 14.5C13.5523 14.5 14 14.0523 14 13.5C14 12.9477 13.5523 12.5 13 12.5L10 12.5V9.5Z" fill="white"/>
</svg>
