<svg width="32" height="32" viewBox="0 0 32 32" fill="none" xmlns="http://www.w3.org/2000/svg">
<path fill-rule="evenodd" clip-rule="evenodd" d="M15 8C15 6.89543 15.8954 6 17 6H23C24.1046 6 25 6.89543 25 8V10C25 11.1046 24.1046 12 23 12H17C15.8954 12 15 11.1046 15 10V8ZM23 8H17V10H23V8Z" fill="white"/>
<path fill-rule="evenodd" clip-rule="evenodd" d="M6 15C6 13.8954 6.89543 13 8 13H23C24.1046 13 25 13.8954 25 15V17C25 18.1046 24.1046 19 23 19H8C6.89543 19 6 18.1046 6 17V15ZM23 15H8V17H23V15Z" fill="white"/>
<path fill-rule="evenodd" clip-rule="evenodd" d="M10 22C10 20.8954 10.8954 20 12 20H23C24.1046 20 25 20.8954 25 22V24C25 25.1046 24.1046 26 23 26H12C10.8954 26 10 25.1046 10 24V22ZM23 22H12V24H23V22Z" fill="white"/>
</svg>
