<svg width="90" height="70" viewBox="0 0 90 70" fill="none" xmlns="http://www.w3.org/2000/svg">
<path d="M45 1.5C56.8967 1.5 67.723 5.1725 75.6074 11.1797C83.4931 17.1878 88.5 25.5956 88.5 35C88.5 44.4044 83.4931 52.8122 75.6074 58.8203C67.723 64.8275 56.8967 68.5 45 68.5C33.1033 68.5 22.277 64.8275 14.3926 58.8203C6.50694 52.8122 1.5 44.4044 1.5 35C1.5 25.5956 6.50694 17.1878 14.3926 11.1797C22.277 5.1725 33.1033 1.5 45 1.5Z" fill="url(#paint0_linear_1_158)" stroke="white" stroke-width="3"/>
<path fill-rule="evenodd" clip-rule="evenodd" d="M41 41.6667C41 36.512 45.1787 32.3333 50.3334 32.3333C55.488 32.3333 59.6667 36.512 59.6667 41.6667V44.7778C59.6667 46.7415 58.0748 48.3333 56.1112 48.3333H42.3334C41.597 48.3333 41 47.7364 41 47V41.6667ZM50.3334 35C46.6515 35 43.6667 37.9848 43.6667 41.6667V45.6667H56.1112C56.6021 45.6667 57 45.2687 57 44.7778V41.6667C57 37.9848 54.0153 35 50.3334 35Z" fill="white"/>
<path d="M30.3334 43.6667C30.3334 39.6166 33.6166 36.3333 37.6667 36.3333C39.7681 36.3333 41.663 37.2172 43 38.6334L41.8843 41.6667C41.1353 40.09 39.5283 39 37.6667 39C35.0894 39 33 41.0893 33 43.6667V44.8462C33 45.2993 33.3674 45.6667 33.8206 45.6667H42.1112V48.3333H33.8206C31.8946 48.3333 30.3334 46.7721 30.3334 44.8462V43.6667Z" fill="white"/>
<path fill-rule="evenodd" clip-rule="evenodd" d="M50.3334 31C51.8061 31 53 29.8061 53 28.3333C53 26.8606 51.8061 25.6667 50.3334 25.6667C48.8606 25.6667 47.6667 26.8606 47.6667 28.3333C47.6667 29.8061 48.8606 31 50.3334 31ZM50.3334 33.6667C53.2789 33.6667 55.6667 31.2789 55.6667 28.3333C55.6667 25.3878 53.2789 23 50.3334 23C47.3879 23 45 25.3878 45 28.3333C45 31.2789 47.3879 33.6667 50.3334 33.6667Z" fill="white"/>
<path fill-rule="evenodd" clip-rule="evenodd" d="M37.6667 35C38.7713 35 39.6667 34.1046 39.6667 33C39.6667 31.8954 38.7713 31 37.6667 31C36.5621 31 35.6667 31.8954 35.6667 33C35.6667 34.1046 36.5621 35 37.6667 35ZM37.6667 37.6667C40.244 37.6667 42.3334 35.5773 42.3334 33C42.3334 30.4227 40.244 28.3333 37.6667 28.3333C35.0894 28.3333 33 30.4227 33 33C33 35.5773 35.0894 37.6667 37.6667 37.6667Z" fill="white"/>
<defs>
<linearGradient id="paint0_linear_1_158" x1="45" y1="3" x2="45" y2="67" gradientUnits="userSpaceOnUse">
<stop stop-color="#025D83"/>
<stop offset="0.333333" stop-color="#022B54"/>
<stop offset="0.796875" stop-color="#020631"/>
<stop offset="1" stop-color="#083C66"/>
</linearGradient>
</defs>
</svg>
