<svg width="90" height="70" viewBox="0 0 90 70" fill="none" xmlns="http://www.w3.org/2000/svg">
<path d="M45 1.5C56.8967 1.5 67.723 5.1725 75.6074 11.1797C83.4931 17.1878 88.5 25.5956 88.5 35C88.5 44.4044 83.4931 52.8122 75.6074 58.8203C67.723 64.8275 56.8967 68.5 45 68.5C33.1033 68.5 22.277 64.8275 14.3926 58.8203C6.50694 52.8122 1.5 44.4044 1.5 35C1.5 25.5956 6.50694 17.1878 14.3926 11.1797C22.277 5.1725 33.1033 1.5 45 1.5Z" fill="url(#paint0_linear_1_163)" stroke="white" stroke-width="3"/>
<path d="M38.7942 24.0888L37.8988 23.7904C36.44 23.3041 34.876 24.1627 34.503 25.6545C33.8034 28.453 34.0049 31.4262 35.4333 33.9324C36.5186 35.8366 37.9731 38.0564 39.619 39.7023C41.2649 41.3482 43.4847 42.8027 45.3889 43.888C47.8951 45.3164 50.8683 45.5179 53.6668 44.8183C55.1586 44.4453 56.0172 42.8813 55.5309 41.4225L55.2325 40.5271C54.4998 38.329 51.8776 37.4293 49.9498 38.7145L48.4682 39.7023C48.4682 39.7023 46.6983 39.7023 43.1587 36.1626C39.619 32.623 39.619 30.8531 39.619 30.8531L40.6068 29.3715C41.892 27.4437 40.9923 24.8215 38.7942 24.0888Z" stroke="white" stroke-width="2.66667" stroke-linecap="round" stroke-linejoin="round"/>
<defs>
<linearGradient id="paint0_linear_1_163" x1="45" y1="3" x2="45" y2="67" gradientUnits="userSpaceOnUse">
<stop stop-color="#025D83"/>
<stop offset="0.333333" stop-color="#022B54"/>
<stop offset="0.796875" stop-color="#020631"/>
<stop offset="1" stop-color="#083C66"/>
</linearGradient>
</defs>
</svg>
